<?xml version="1.0" encoding="utf-8"?>
<!-- Generator: Adobe Illustrator 28.0.0, SVG Export Plug-In . SVG Version: 6.00 Build 0)  -->
<svg version="1.1" xmlns="http://www.w3.org/2000/svg" xmlns:xlink="http://www.w3.org/1999/xlink" x="0px" y="0px"
	 viewBox="0 0 841.89 595.28" style="enable-background:new 0 0 841.89 595.28;" xml:space="preserve">
<style type="text/css">
	.st0{display:none;}
	.st1{display:inline;}
	.st2{fill:#FFFFFF;}
	.st3{display:inline;fill:#FFFFFF;stroke:#000000;stroke-width:2.1838;stroke-miterlimit:10;}
	.st4{display:inline;fill:#FFFFFF;stroke:#000000;stroke-width:3.2756;stroke-miterlimit:10;}
	.st5{display:inline;fill:none;stroke:#000000;stroke-width:14.8505;stroke-miterlimit:10;}
</style>
<g id="Layer_1" class="st0">
	<rect x="-18.51" y="-6.7" class="st1" width="865.53" height="624"/>
	<g class="st1">
		<g>
			<path d="M325.79,434.36c0-122.67,0-245.33,0-368c122.67,0,245.33,0,368,0c0,122.67,0,245.33,0,368
				C571.12,434.36,448.46,434.36,325.79,434.36z M455.96,195.71c-5.06,6.63-10.11,12.81-14.67,19.33
				c-6.41,9.16-11.4,19.09-14.75,29.79c-0.39,1.25-0.9,1.92-2.22,1.69c-4.23-0.74-8.48-1.36-12.66-2.34
				c-1.41-0.33-2.31-0.4-3.24,0.75c-0.9,1.12-1.82,2.02-0.9,3.7c3.76,6.86,8.7,12.63,15.54,16.5c12.02,6.81,24.85,8.19,37.82,3.77
				c14.06-4.79,27.89-10.28,41.67-15.83c13.66-5.5,27.22-11.19,41.87-13.6c13.66-2.25,26.84-1.72,38.87,6.29
				c5.27,3.51,8.83,8.06,9.6,14.42c0.86,7.11-1,13.82-4.47,19.87c-8.75,15.26-22.41,24.48-38.82,29.77
				c-9.5,3.06-19.27,4.99-29.29,5.79c-19.69,1.56-38.51-1.28-55.97-10.75c-12.35-6.69-22.66-15.42-26.38-29.88
				c-0.17-0.68-1.14-1.4-1.89-1.64c-4.72-1.52-9.49-2.9-14.43-4.39c-0.07,0.45-0.25,1.24-0.29,2.04
				c-0.49,10.07-0.43,20.04,1.75,30.04c4.31,19.69,13.85,35.8,30.5,47.42c14.82,10.34,31.34,15.53,49.36,15.65
				c24.06,0.16,46.35-5.83,66.3-19.64c9.32-6.45,17.45-14.15,23.84-23.51c8.87-13,14.87-27.16,16.84-42.94
				c2.21-17.8,0.05-34.7-9.96-49.97c-9.27-14.15-22.38-21.88-39.43-22.66c-15.73-0.72-30.69,3.36-45.54,7.6
				c-15.12,4.32-29.23,11.31-43.41,18.02c-8.28,3.91-16.67,7.56-25.38,11.49c0.2-0.79,0.23-1.03,0.32-1.24
				c3.01-7.24,7.96-13,13.7-18.18c10.77-9.72,23.22-16.67,36.79-21.46c9.06-3.19,18.44-5.49,27.72-8.04
				c11.51-3.17,23.33-4.58,35.21-4.95c10.38-0.32,20.78,0.03,31.17,0.23c1.91,0.04,2.7-0.54,3.41-2.27
				c4.7-11.45,9.55-22.84,14.33-34.25c2.28-5.46,2.22-5.42-1.82-9.56c-1.04-1.07-2-1.36-3.47-1.26c-12.7,0.81-25.4,1.89-38.11,2.12
				c-13.14,0.23-26.32,0.06-39.43-0.78c-19.34-1.23-38.67-3.12-57.64-7.29c-11.5-2.53-22.78-6.05-34.14-9.17
				c-1.92-0.53-6.35,1.41-7.02,3.35c-2.29,6.6-4.57,13.2-6.71,19.84c-0.26,0.81,0.08,2.11,0.62,2.82c2.71,3.58,5.57,7.04,8.38,10.54
				C438.37,173.9,447.23,184.88,455.96,195.71z M510.47,413.13c1.01-0.66,2.02-1.31,3.2-2.08c0.09,1.13,0.06,1.97,0.26,2.76
				c0.1,0.38,0.65,0.89,0.98,0.88c0.37-0.01,0.71-0.56,1.07-0.87c-2.03-0.67,0.47-1.87-0.23-2.58c-0.51,0.04-0.94,0.06-1.36,0.09
				c0.97-1.4-0.9-1.84-0.79-3.45c-0.45,1.34-0.71,2.11-0.77,2.3c-1.62,0.67-2.83,1.17-4.14,1.72c-0.71-0.39-1.74-0.94-2.6-1.41
				c1.54,1.62,3.12,3.29,4.74,5C510.71,414.73,510.59,413.93,510.47,413.13z M513.93,418.54c-3.85,1.32-6.92,0.03-9.51-2.89
				C506.05,419.42,510.04,420.61,513.93,418.54z"/>
			<path class="st2" d="M455.96,195.71c-8.73-10.82-17.58-21.8-26.43-32.78c-2.82-3.49-5.68-6.96-8.38-10.54
				c-0.54-0.71-0.88-2.02-0.62-2.82c2.14-6.65,4.43-13.24,6.71-19.84c0.67-1.94,5.1-3.87,7.02-3.35
				c11.36,3.12,22.64,6.64,34.14,9.17c18.96,4.17,38.29,6.05,57.64,7.29c13.11,0.83,26.29,1.01,39.43,0.78
				c12.71-0.22,25.41-1.31,38.11-2.12c1.47-0.09,2.43,0.19,3.47,1.26c4.04,4.15,4.11,4.11,1.82,9.56
				c-4.78,11.42-9.63,22.8-14.33,34.25c-0.71,1.73-1.5,2.31-3.41,2.27c-10.39-0.2-20.79-0.55-31.17-0.23
				c-11.88,0.37-23.7,1.78-35.21,4.95c-9.28,2.55-18.66,4.85-27.72,8.04c-13.57,4.78-26.02,11.74-36.79,21.46
				c-5.74,5.18-10.69,10.94-13.7,18.18c-0.09,0.21-0.12,0.45-0.32,1.24c8.71-3.93,17.11-7.58,25.38-11.49
				c14.19-6.7,28.29-13.7,43.41-18.02c14.85-4.24,29.82-8.32,45.54-7.6c17.05,0.78,30.16,8.52,39.43,22.66
				C610,243.3,612.17,260.2,609.95,278c-1.96,15.78-7.97,29.94-16.84,42.94c-6.39,9.36-14.52,17.06-23.84,23.51
				c-19.95,13.82-42.24,19.81-66.3,19.64c-18.03-0.12-34.55-5.31-49.36-15.65c-16.65-11.62-26.2-27.74-30.5-47.42
				c-2.19-9.99-2.24-19.97-1.75-30.04c0.04-0.8,0.22-1.59,0.29-2.04c4.94,1.49,9.71,2.87,14.43,4.39c0.75,0.24,1.72,0.96,1.89,1.64
				c3.72,14.46,14.03,23.19,26.38,29.88c17.47,9.46,36.28,12.31,55.97,10.75c10.02-0.8,19.79-2.73,29.29-5.79
				c16.41-5.29,30.07-14.51,38.82-29.77c3.47-6.04,5.33-12.75,4.47-19.87c-0.77-6.36-4.34-10.91-9.6-14.42
				c-12.03-8.02-25.21-8.54-38.87-6.29c-14.65,2.41-28.21,8.1-41.87,13.6c-13.78,5.55-27.62,11.03-41.67,15.83
				c-12.97,4.42-25.8,3.04-37.82-3.77c-6.84-3.88-11.78-9.65-15.54-16.5c-0.92-1.68-0.01-2.58,0.9-3.7
				c0.93-1.16,1.82-1.08,3.24-0.75c4.17,0.98,8.43,1.6,12.66,2.34c1.32,0.23,1.83-0.44,2.22-1.69c3.35-10.7,8.34-20.64,14.75-29.79
				C445.85,208.52,450.9,202.34,455.96,195.71z M461.25,190.78c9.66-8.94,19.63-16.81,31.24-22.24
				c-13.98-2.15-27.82-4.27-41.74-6.41C454.23,171.64,457.68,181.06,461.25,190.78z"/>
			<path class="st2" d="M510.47,413.13c0.12,0.8,0.24,1.6,0.36,2.36c-1.62-1.71-3.2-3.37-4.74-5c0.86,0.46,1.89,1.02,2.6,1.41
				c1.32-0.55,2.53-1.05,4.14-1.72c0.06-0.19,0.32-0.96,0.77-2.3c-0.11,1.61,1.76,2.05,0.79,3.45c0.43-0.03,0.85-0.06,1.36-0.09
				c0.69,0.71-1.8,1.92,0.23,2.58c-0.36,0.31-0.7,0.86-1.07,0.87c-0.33,0.01-0.88-0.5-0.98-0.88c-0.2-0.79-0.17-1.63-0.26-2.76
				C512.48,411.82,511.48,412.47,510.47,413.13z"/>
			<path class="st2" d="M513.93,418.54c-3.89,2.07-7.88,0.88-9.51-2.89C507.01,418.57,510.08,419.86,513.93,418.54z"/>
			<path d="M461.25,190.78c-3.57-9.73-7.02-19.14-10.5-28.65c13.93,2.14,27.76,4.27,41.74,6.41
				C480.88,173.97,470.91,181.85,461.25,190.78z"/>
		</g>
	</g>
	<g class="st1">
		<g>
			<path d="M544.34,208.93c1.94-4.69-0.82,1.36-1.3,2.21c-0.74,1.33-1.53,2.63-2.37,3.9c-0.56,0.85-1.14,1.68-1.74,2.5
				c1.36-1.72,1.59-2.04,0.7-0.96c-1.22,1.29-2.33,2.68-3.59,3.94c-1.08,1.08-2.25,2.06-3.34,3.12c-1.67,1.38-1.54,1.32,0.39-0.19
				c-0.81,0.61-1.64,1.19-2.49,1.76c-1.26,0.85-2.56,1.65-3.89,2.4c-0.84,0.48-6.88,3.31-2.19,1.34c8,8,15.99,15.99,23.99,23.99
				c1.37-4.12-1.64,2.17,0.57-1.14c0.88-1.33,1.71-2.69,2.61-4.01c3.02-4.41-2.42,3.05,0.87-1.19c1.68-2.16,3.39-4.31,5.02-6.51
				c5.48-7.43,9.38-17.85,5.65-26.95c-2.4-5.86-5.28-10.1-11.29-12.64c-5.72-2.41-11.9-2.14-17.35,0.98
				c-7.92,4.54-15.78,9.18-23.73,13.66c-3.61,2.04-7.27,4.05-11.08,5.7c3.78-1.63-2.86,0.88-3.59,1.09
				c-0.87,0.25-7.89,1.45-3.42,0.96c5.61,9.78,11.23,19.56,16.84,29.34c0.7-1.12,1.42-2.22,2.17-3.31c1.08-1.56,1.98-2.54,0.27-0.49
				c1.69-2.03,3.43-4.01,5.3-5.87c1.69-1.68,3.52-3.18,5.28-4.77c1.68-1.51-2.6,1.65,0.46-0.3c1.33-0.85,2.63-1.76,3.97-2.6
				c8.65-5.39,12.81-17.65,7-26.68c-5.67-8.79-17.32-12.61-26.68-7c-10.31,6.19-20.1,13.22-29.97,20.08
				c-10.1,7.03-20.69,13.82-29.31,22.68c-7.12,7.31-7.83,20.39,0,27.58c7.7,7.07,19.97,7.81,27.58,0c1.79-1.84,3.64-3.59,5.6-5.25
				c1.15-0.97,2.94-2.34,0.73-0.68c0.91-0.69,1.83-1.36,2.76-2.03c4.55-3.29,9.21-6.45,13.82-9.66
				c9.38-6.52,18.68-13.16,28.48-19.04c-6.56-11.23-13.12-22.45-19.68-33.68c-12.83,8-23.39,18.54-31.45,31.34
				c-7.31,11.6,2,30.99,16.84,29.34c23.01-2.56,41.86-15.48,61.5-26.73c-9.55-3.88-19.1-7.77-28.65-11.65
				c-0.74-1.81,0.45-4.19,0.57-5.96c0.15-2.29-0.75,0.65-1.34,1.56c-1.97,3.07,1.03-1.25-0.37,0.56c-1.52,1.95-3.05,3.89-4.54,5.86
				c-3.99,5.27-6.94,10.73-9.04,17.04c-4.31,12.99,10.24,29.76,23.99,23.99c22.22-9.33,37.85-24.96,47.05-47.26
				c3.9-9.46-4.22-21.85-13.62-23.99C556.96,192.72,548.52,198.8,544.34,208.93L544.34,208.93z"/>
		</g>
	</g>
	<g class="st1">
		<g>
			<path d="M551.67,207.48c-2.47,10.69-5.66,21.17-9.56,31.43c-2.92,7.68,1.88,18.28,8.96,22.02c8.01,4.23,16.9,2.92,23.63-3.05
				c5.31-4.71,9.33-10.86,12.49-17.17c1.3-2.6,2.52-5.24,3.85-7.83c0.66-1.29,1.35-2.56,2.09-3.8c0.58-0.98,3.79-5.23,0.65-1.34
				c-10.86-6.32-21.73-12.65-32.59-18.97c-1.16,7.88-3.18,15.56-5.79,23.09c-1.21,3.48-2.52,6.92-3.9,10.34
				c-0.69,1.71-1.39,3.42-2.11,5.12c1.47-3.5-1.38,3.2-1.65,3.81c-4.02,9.34-3.09,21.35,7,26.68c8.39,4.44,22.37,3.01,26.68-7
				c7.2-16.72,14.7-33.52,17.38-51.67c1.24-8.37-0.74-17.68-8.96-22.02c-7.11-3.75-18.11-3.79-23.63,3.05
				c-4.69,5.81-8.16,11.58-11.41,18.26c-1.26,2.59-2.53,5.19-4.02,7.66c-0.37,0.61-3.22,4.15-1.29,2.1
				c2.05-2.17-1.98,1.77-2.37,2.12c10.86,6.32,21.73,12.65,32.59,18.97c3.9-10.26,7.08-20.73,9.56-31.43
				c2.29-9.92-3.06-21.58-13.62-23.99C565.7,191.6,554.13,196.86,551.67,207.48L551.67,207.48z"/>
		</g>
	</g>
	<g class="st1">
		<g>
			<path d="M555.51,220.54c0.41,4.23,0.68,8.47,0.74,12.72c0.03,2.07-0.03,4.12-0.12,6.19c0.15-3.36,0.01-0.01-0.44,1.55
				c-0.23,0.81-2.31,5.2-0.41,1.5c-0.78,1.52-1.49,3.06-2.28,4.58c-1.94,3.74-4.02,7.4-6.2,11.01c-5.26,8.75-2.23,21.8,7,26.68
				c9.45,4.99,21.06,2.34,26.68-7c4.94-8.22,10.18-17.12,12.82-26.4c2.81-9.88,2.19-20.73,1.21-30.83c-0.98-10.12-8.27-20-19.5-19.5
				C565.28,201.47,554.46,209.67,555.51,220.54L555.51,220.54z"/>
		</g>
	</g>
	<g class="st1">
		<g>
			<path d="M559.46,217.5c0.49,4.27,0.43,8.4,0.27,12.67c-0.24,2.26-0.2,2.11,0.11-0.46c-0.17,1.04-0.37,2.08-0.59,3.12
				c-0.39,1.81-0.87,3.6-1.42,5.37c-0.29,0.94-2.42,6.32-0.54,2.03c-0.85,1.94-1.81,3.83-2.85,5.67c-1.05,1.85-2.23,3.59-3.42,5.34
				c2.59-3.82-1.34,1.46-2,2.17c-6.91,7.51-7.98,20.25,0,27.58c7.52,6.9,20.2,8.02,27.58,0c15.61-16.96,24.56-40.33,21.87-63.5
				c-1.17-10.1-8.13-20.01-19.5-19.5C569.4,198.43,558.2,206.65,559.46,217.5L559.46,217.5z"/>
		</g>
	</g>
	<g class="st1">
		<g>
			<path d="M558.23,226.14c0.49,4.25,0.87,8.52,0.85,12.81c-0.01,1.84-0.12,3.65-0.21,5.49c-0.24,2.34-0.23,2.43,0.02,0.26
				c-0.14,0.87-0.32,1.73-0.52,2.58c-0.41,1.84-1,3.61-1.55,5.41c-1.13,3.74,1.7-2.3-0.61,1.23c-0.88,1.34-1.6,2.76-2.51,4.09
				c2.55-3.7-1.5,1.26-2.27,1.98c-7.54,6.91-7.53,20.67,0,27.58c8.07,7.4,19.53,7.37,27.58,0c16.99-15.56,20.75-39.54,18.22-61.41
				c-1.17-10.1-8.13-20.01-19.5-19.5C568.17,207.07,556.97,215.29,558.23,226.14L558.23,226.14z"/>
		</g>
	</g>
	<g class="st1">
		<g>
			<path d="M562.29,232.6c0.15,0.76,0.29,4.64,0.34,1.68c0.05-3.12-0.01,1.42,0,1.71c0.07,2.17-0.14,4.3-0.2,6.47
				c-0.07,2.63,0.99-4.7,0.01-0.19c-0.2,0.94-0.38,1.88-0.6,2.82c-0.09,0.38-2,6.95-2.15,6.88c-0.11-0.05,1.74-3.61,0.26-0.68
				c-0.54,1.08-1.07,2.15-1.66,3.2c-0.32,0.57-3.04,5.61-3.49,5.47c1.46-1.84,1.74-2.21,0.83-1.11c-0.3,0.37-0.62,0.74-0.94,1.09
				c-0.79,0.9-1.62,1.77-2.47,2.61c-0.69,0.67-1.41,1.3-2.11,1.96c-3.48,3.28,3.3-2.28-0.6,0.49c-8.3,5.89-13.05,17.29-7,26.68
				c5.31,8.24,17.78,13.31,26.68,7c24.73-17.55,36.56-46.62,30.72-76.46c-1.96-10.03-14.49-16.69-23.99-13.62
				C565.23,212.07,560.18,221.85,562.29,232.6L562.29,232.6z"/>
		</g>
	</g>
	<g class="st1">
		<g>
			<path d="M453.83,275.1c10.2,0,19.97-8.97,19.5-19.5c-0.47-10.57-8.57-19.5-19.5-19.5c-10.2,0-19.97,8.97-19.5,19.5
				C434.8,266.16,442.9,275.1,453.83,275.1L453.83,275.1z"/>
		</g>
	</g>
	<g class="st1">
		<g>
			<path d="M450.73,239.01c-2.2,0.37-4.4,0.72-6.59,1.07c-1.41,0.21-1.26,0.19,0.46-0.06c-0.95,0.11-1.9,0.2-2.85,0.28
				c-2.16,0.18-4.33,0.28-6.49,0.25c-0.98-0.01-6.07-0.52-1.74,0.14c-1.74-0.26-3.36-0.74-5.07-1.12c-4.62-1.02,1.83,1.02-1.37-0.43
				c-2.32-1.05-4.62-2.27-7.07-2.98c-1.12-0.3-2.25-0.55-3.39-0.74c1.2,0.56,2.31,1.25,3.33,2.08c-1.32,10.21-2.63,20.42-3.95,30.63
				c-2.36,1.44-4.81,1.92-7.37,1.45c-2.17-1.05-2.27-1.08-0.29-0.09c1.84,1.04,3.7,2.03,5.62,2.92c6.02,2.81,11.64,4.05,18.25,4.79
				c9.58,1.08,19.31,1.27,28.94,1.83c10.2,0.59,19.95-9.39,19.5-19.5c-0.5-11.07-8.57-18.87-19.5-19.5
				c-5.65-0.32-11.31-0.65-16.96-0.97c-2.54-0.15-5.08-0.27-7.61-0.45c-0.4-0.03-4.07-0.38-1.76-0.08c2.54,0.33-2.55-0.61-2.54-0.61
				c-1.88-0.42-1.74-0.74-0.06,0.16c-0.93-0.5-1.86-1-2.79-1.5c-2.87-1.54-5.84-2.97-8.91-4.08c-8.4-3.03-16.32-1.57-24.19,1.96
				c-11.56,5.18-12.2,22.62-3.95,30.63c2.23,2.17,4.75,4.17,7.55,5.52c2.32,1.12,4.68,1.99,7.18,2.59c1.15,0.27,3.35,1.55,1.41,0.1
				c-2.08-1.56,0.07,0.09,0.85,0.44c2.06,0.93,4.15,1.84,6.26,2.62c2.45,0.9,4.95,1.52,7.53,1.95c12.91,2.15,25.15,0.49,37.95-1.67
				c10.09-1.7,16.63-14.67,13.62-23.99C471.2,241.74,461.54,237.18,450.73,239.01L450.73,239.01z"/>
		</g>
	</g>
	<path class="st3" d="M410.84,245.86c0.22,1.38,0.55,2.31,0.47,3.2c-0.8,8.12-1.47,16.27-2.57,24.36
		c-1.45,10.71-3.1,21.38-3.05,32.22c0.03,8.14,0.69,16.18,4.36,23.68c5.18,10.6,16.18,14.75,27.11,10.26
		c8.12-3.33,14.34-9.06,20.13-15.41c8.18-8.96,13.74-19.66,20.07-29.85c9.89-15.94,19.47-32.09,29.86-47.7
		c9.41-14.13,20.71-26.75,34.33-37.07c8.87-6.72,18.49-11.96,29.48-14.31c10.85-2.32,20.54-0.15,28.29,8.1
		c1.87,1.99,3.34,4.71,4.09,7.35c2.26,8,2.21,16.14,0.2,24.24c-0.11,0.46-0.4,0.87-0.83,1.79c-1.25-1.1-2.29-2.09-3.4-2.98
		c-3.15-2.51-6.06-5.46-9.54-7.36c-7.03-3.83-14.54-3.24-21.98-0.99c-10.43,3.16-19.22,9.1-27.17,16.35
		c-13.04,11.88-23.43,25.9-32.49,40.95c-10.27,17.05-20.38,34.2-30.73,51.2c-4.75,7.8-10.38,14.95-17.78,20.5
		c-13.81,10.35-28.91,9.9-42.19-1.12c-9.45-7.84-14.78-17.99-17.08-29.9c-2.37-12.3-2-24.67,0.04-36.9
		c1.97-11.75,4.81-23.36,7.36-35.02C408.24,249.6,408.66,247.59,410.84,245.86z"/>
	<path class="st4" d="M423.55,243.62c-6.87-0.28-13.77-0.25-20.59-0.92c-8.28-0.82-14-6.74-15.35-14.52
		c-1.62-9.31,1.17-17.64,6.08-25.45c2.06-3.28,4.58-6.38,7.33-9.16c7.81-7.9,15.99-8.32,25.86-3.1c5.98,3.16,10.61,7.77,14.89,12.75
		c6.72,7.83,12.27,16.24,14.68,26.18c3.04,12.57,2.03,24.79-4.05,36.48c-3.77,7.24-9.95,12.18-17.21,16.13
		c-13.2,7.17-27.27,12.45-41.46,17.51c-16.07,5.73-32.39,10.75-49,14.89c-15.91,3.97-32.02,6.92-48.39,8.58
		c-10.43,1.06-20.9,1.48-31.38,1.04c-13.94-0.6-27.69-2.41-40.54-7.94c-10.45-4.5-19.43-10.8-25.36-20.37
		c-4.49-7.25-5.9-15.15-5.54-23.46c0.5-11.48,3.52-22.4,7.84-33.05c0.76-1.86,1.89-3.6,2.94-5.35c0.22-0.36,0.95-0.83,1.18-0.73
		c0.47,0.2,0.98,0.74,1.06,1.2c0.12,0.72-0.03,1.5-0.19,2.23c-1.14,5.25-2.79,10.44-3.37,15.74c-1.64,14.95,3.89,27.08,17.08,35.84
		c10.27,6.82,21.97,10,34.19,11.57c6.86,0.88,13.84,1.62,20.72,1.39c11.11-0.37,22.25-1.16,33.27-2.53
		c21.96-2.74,43.47-7.66,64.55-14.01c16.85-5.07,33.57-10.59,50.22-16.21c7.85-2.65,15.53-5.81,22.48-10.3
		c1.31-0.85,2.55-1.86,3.59-2.98c1.7-1.84,1.55-3.68-0.35-5.34c-3.3-2.87-7.39-4.35-11.67-5.1c-4.44-0.78-8.98-1.03-13.47-1.51
		C423.58,243.26,423.56,243.44,423.55,243.62z M427.69,220.31c0.11-0.3,0.22-0.61,0.33-0.91c-2-1.79-3.87-3.75-6.04-5.34
		c-6.32-4.63-13.15-3.8-19.04,0.77c-3.06,2.38-2.54,4.4,1.21,5.68c0.25,0.09,0.52,0.12,0.77,0.19c4.92,1.45,9.97,1.6,15.02,1.07
		C422.55,221.51,425.11,220.82,427.69,220.31z"/>
	<g class="st1">
		<g>
			<path class="st2" d="M593.62,219.86c1.74,6.47,5.96,12.66,6.63,19.3c0.7,7.01,0.92,14.44,0.55,21.47c-0.23,4.5,6.77,4.49,7,0
				c0.39-7.57,0.22-15.72-0.73-23.25c-0.87-6.83-4.91-12.76-6.69-19.38C599.2,213.65,592.45,215.5,593.62,219.86L593.62,219.86z"/>
		</g>
	</g>
	<g class="st1">
		<g>
			<path class="st2" d="M199.51,238.63c-12.91,4.62-16.62,23.48-18.81,35.25c-0.62,3.35-0.73,6.97-1.8,10.22
				c-1.93,5.87-6.53,2.4-8.98-1.28c-4.57-6.86-5.47-15.65-5.09-23.68c1.57-33.72,28.73-58.06,57.33-71.49
				c4.07-1.91,0.53-7.95-3.53-6.04c-25.39,11.92-48.31,31.15-57.29,58.55c-4.25,12.97-5.5,28.43-0.05,41.24
				c2.13,5.01,5.74,10.71,11.14,12.61c4.89,1.72,9.65-0.48,12.02-4.96c1.43-2.72,1.83-5.81,2.27-8.8c0.66-4.51,1.56-8.98,2.77-13.39
				c1.86-6.75,4.39-18.8,11.88-21.48C205.59,243.87,203.77,237.11,199.51,238.63L199.51,238.63z"/>
		</g>
	</g>
	<g class="st1">
		<g>
			<path class="st2" d="M203.19,192.38c-25.92,20.44-40.23,53.85-37.2,86.71c2.29-0.31,4.58-0.62,6.87-0.93
				c-6.15-18.04-4.8-37.67,4.07-54.59c-2.17-0.59-4.35-1.18-6.52-1.77c-0.03,17.07-10.02,32.82-7.17,50.11
				c1,6.03,3.93,14.06,10.6,15.84c5.36,1.43,10.28-2.29,10.81-7.61c0.44-4.48-6.56-4.45-7,0c-0.32,3.24-5.14-2.24-5.71-3.42
				c-1.24-2.54-1.88-5.43-2.12-8.24c-0.46-5.36,0.37-10.74,1.59-15.95c2.4-10.24,5.98-20.09,6-30.74c0.01-3.37-4.88-4.9-6.52-1.77
				c-9.7,18.51-11.53,40.17-4.77,59.98c1.19,3.5,7.26,3.23,6.87-0.93c-2.88-31.27,10.49-62.32,35.15-81.76
				C211.68,194.55,206.69,189.62,203.19,192.38L203.19,192.38z"/>
		</g>
	</g>
	<g class="st1">
		<g>
			<path class="st2" d="M358.89,179.88c5.28,3.91,10.56,7.82,15.84,11.73c-0.11-0.08,0.09-3.95,0.08-3.51
				c0.03-2.83,0.04-5.66,0.04-8.49c0-2.83-0.01-5.66-0.04-8.49c-0.01-0.53,0.27-3.25-0.08-3.51c-5.28-3.91-10.56-7.82-15.84-11.73
				c0.11,0.08-0.09,3.95-0.08,3.51c-0.03,2.83-0.04,5.66-0.04,8.49c0,2.83,0.01,5.66,0.04,8.49
				C358.82,176.9,358.54,179.62,358.89,179.88L358.89,179.88z"/>
		</g>
	</g>
	<g class="st1">
		<g>
			<path class="st2" d="M200.67,166.96c4.86,2.68,9.34,5.91,13.42,9.67c-0.14-0.13,0.09-3.88,0.08-3.51
				c0.03-2.83,0.04-5.66,0.04-8.49c0-2.83-0.01-5.66-0.04-8.49c-0.01-0.6,0.3-3.16-0.08-3.51c-4.09-3.76-8.56-6.99-13.42-9.67
				c0.07,0.04-0.09,4.01-0.08,3.51c-0.03,2.83-0.04,5.66-0.04,8.49c0,2.83,0.01,5.66,0.04,8.49
				C200.59,163.92,200.36,166.8,200.67,166.96L200.67,166.96z"/>
		</g>
	</g>
	<g class="st1">
		<g>
			<path class="st2" d="M218.23,159.24c5.19,4.15,10.38,8.3,15.57,12.46c-0.12-0.09,0.09-3.93,0.08-3.51
				c0.03-2.83,0.04-5.66,0.04-8.49c0-2.83-0.01-5.66-0.04-8.49c-0.01-0.56,0.28-3.22-0.08-3.51c-5.19-4.15-10.38-8.3-15.57-12.46
				c0.12,0.09-0.09,3.93-0.08,3.51c-0.03,2.83-0.04,5.66-0.04,8.49c0,2.83,0.01,5.66,0.04,8.49
				C218.15,156.28,217.87,158.95,218.23,159.24L218.23,159.24z"/>
		</g>
	</g>
</g>
<g id="Layer_2">
</g>
<g id="Layer_5" class="st0">
	<g class="st1">
		<g>
			<path d="M493.43,213.78c30.86,9.09,62.82,17.15,94.94,19.96c17.5,1.53,35.22,1.5,52.74,0.45c8.77-0.53,17.54-1.44,26.17-3.14
				c1.84-0.36,3.68-0.76,5.51-1.19c2.17-0.51,5.07-1.94,7.26-1.94c2.09-0.01,2.14-0.76,2.74,2.03c0.41,1.87,0.18,3.62-0.29,5.45
				c1.79-4.52,3.57-9.04,5.36-13.55c-0.17,0.43-0.35,0.85-0.52,1.28c1.09-2.6,2.18-5.2,3.27-7.8c-0.23,0.4-0.46,0.79-0.69,1.19
				c-3.83,6.58-4.82,14.81-8.63,21.35c2.37-4.08,3.87-8.73,5.63-13.1c1.66-4.11,4.47-8.87,4.71-13.43c0.06-1.12-0.02-4.62-1.16-5.33
				c-0.72-0.45-6.23,1.8-7.24,2.05c-4.25,1.07-8.56,1.93-12.89,2.61c-19.66,3.12-40.03,3.36-59.88,2.56
				c-36.73-1.48-73.28-10.45-108.42-20.81C501.18,192.17,493.98,213.94,493.43,213.78L493.43,213.78z"/>
		</g>
	</g>
	<g class="st1">
		<g>
			<path d="M685.83,227.09c-16.93,0.24-33.85,0.49-50.78,0.73c-7.59,0.11-15.17,0.16-22.66,1.52c-7.98,1.45-15.71,3.99-23.37,6.61
				c-13.35,4.56-27.07,9.56-37.79,19.06c-4.87,4.32-8.96,9.45-11.77,15.33c-5.08,10.65-9.34,21.92-13.36,33
				c-0.71,1.97,1.13-2.4,0.72-1.45c1.27-2.92,2.45-5.9,3.65-8.85c2.47-6.08,5.04-12.14,7.28-18.31
				c-10.4,23.19-13.39,30.76-8.95,22.72c0.37-0.69,0.77-1.36,1.19-2.02c0.7-1.11,1.45-2.18,2.24-3.22c1.75-2.31,3.71-4.45,5.82-6.43
				c4.4-4.12,9.44-7.48,14.75-10.3c11.46-6.07,24.25-10.26,36.69-13.83c13.42-3.85,26.69-4.03,40.53-4.23
				c14.6-0.21,29.21-0.42,43.81-0.63c1.17-0.02,5.57-13.36,6.15-14.79c1.41-3.5,2.82-7,4.2-10.52
				C684.36,231.01,685.64,227.1,685.83,227.09L685.83,227.09z"/>
		</g>
	</g>
	<g class="st1">
		<g>
			<path d="M494.76,214.09c10.66,4.72,22.48,7.77,31.61,15.35c8.42,6.99,13.46,16.21,16.25,26.58c-0.94-3.5,0.13-8.87,0.13-12.51
				c0-3.84,0.88-8.77-0.13-12.51c-2.78-10.37-7.82-19.58-16.25-26.58c-9.13-7.58-20.95-10.63-31.61-15.34
				c0.6,0.27-0.13,11.37-0.13,12.51C494.63,202.85,493.71,213.62,494.76,214.09L494.76,214.09z"/>
		</g>
	</g>
	<g class="st1">
		<g>
			<path d="M430.32,354.08c-0.6,8.88-0.56,17.78-0.56,26.67c0,8.59-0.34,17.31,0.58,25.87c1.26,11.71,6.61,22.83,18.45,26.78
				c12.84,4.29,26.07-0.84,37.08-7.44c12.17-7.3,23.71-15.87,34.83-24.66c20.35-16.08,39.17-33.94,58.89-50.76
				c10.79-9.2,21.74-18.55,33.53-26.47c10.89-7.31,21.75-11.13,34.87-10.27c10.1,0.66,20.73,1.91,29.6,7.09
				c8.48,4.95,17.42,13.07,17.68,23.59c0-10.94,0-21.88,0-32.82c-0.04,0.58-0.08,1.16-0.12,1.75c-1.15,11.25,1.14,22.84,0,34.04
				c1.14-11.2,0.46-22.83,0.25-34.07c-0.09-4.71-0.74-8.87-3.2-12.99c-4.33-7.24-11.98-12.78-19.62-16.1
				c-8.33-3.61-18.67-4.41-27.64-4.68c-13.11-0.39-24.09,4.87-34.58,12.34c-21.94,15.61-41.73,34.15-61.89,51.92
				c-20.38,17.96-41.67,36.47-65.5,49.75c-11.89,6.62-27.35,10.97-39.8,3.12c-5.26-3.32-8.82-8.55-10.79-14.38
				c-1.06-3.16-1.68-6.46-2.04-9.77c-0.07-0.77-0.14-1.55-0.2-2.32c-0.48-9.44-0.51-1.96-0.06,22.46c0.11-1.94,0.2-3.88,0.33-5.82
				c0.47-6.93,0.14-13.99,0.12-20.94c-0.01-3.39,0.01-6.78-0.08-10.17C430.44,355.48,430.43,352.44,430.32,354.08L430.32,354.08z"/>
		</g>
	</g>
	<g class="st1">
		<g>
			<path d="M547.67,302.9c-0.05-0.85,0.05-1.67,0.29-2.48c-4.77,11.86-9.55,23.72-14.32,35.58c4.5-9.8,8.64-19.77,12.63-29.82
				c2.24-5.63,6.29-13.04,3.79-19.29c-2.34-5.83-10.24-6.63-15.65-7.22c-6.6-0.72-13.27-0.3-19.83,0.58
				c-6.71,0.9-13.34,2.33-19.97,3.68c-5.26,1.07-13.03,4-18.37,2.46c-5.2-1.5-6.12-8.14-7.03-12.66
				c-1.29-6.37-1.91-13.07,0.38-19.29c-4.7,11.64-9.4,23.27-14.1,34.91c4.68-10.19,16.75-13.96,27-15.64
				c11.05-1.81,22.7-0.98,33.06,3.47c19.03,8.17,31.77,29.84,24.23,50.14c4.05-10.1,8.1-20.19,12.14-30.29
				c1.51-3.66-1.18,1.57-1.6,2.21c-1.03,1.59-2.17,3.11-3.38,4.56c-2.17,2.59-4.58,4.95-7.18,7.11
				c-5.64,4.68-12.07,8.24-18.89,10.89c-0.53,0.21-2.39,5.54-2.27,5.25c-1.77,4.25-3.5,8.51-5.22,12.78
				c-1.72,4.27-3.44,8.54-5.12,12.82c-0.32,0.8-1.43,5.13-2.01,5.35c9.5-3.69,18.34-9.24,25.14-16.91
				c2.98-3.36,5.45-7.11,7.38-11.17c5.47-11.55,9.96-23.7,14.52-35.63c3.71-9.7,4.67-19.46,0.7-29.31
				c-3.93-9.73-11.53-17.83-20.84-22.62c-10.03-5.15-21.63-6.6-32.74-5.32c-9.96,1.15-22.02,4.1-28.29,12.64
				c-1.46,1.99-2.41,4.27-3.38,6.52c-2.9,6.75-5.61,13.59-8.34,20.41c-2.9,7.23-6.81,14.72-6.95,22.69c-0.09,5.33,0.89,10.9,2.43,16
				c1.81,6.02,5.3,8.08,11.46,7.21c13.08-1.85,77.43-19.97,67.81,10.84c4.77-11.86,9.54-23.72,14.32-35.58
				c-2.88,6-5.48,12.07-7.99,18.27c-2.25,5.54-4.49,11.08-6.65,16.65c-0.85,2.2-1.66,4.06-1.76,6.41c0.05-1.13,2.02-4.64,2.27-5.25
				c1.77-4.25,3.5-8.51,5.22-12.78c1.72-4.27,3.44-8.54,5.12-12.82C546.26,306.72,547.6,304.54,547.67,302.9L547.67,302.9z"/>
		</g>
	</g>
	<g class="st1">
		<g>
			<path d="M194.15,362.37c31.04,26.83,72.5,36.45,112.57,38.64c44.66,2.44,89.8-3.15,132.64-15.93
				c24.13-7.19,47.49-16.73,69.81-28.37c0.62-0.33,2.31-5.35,2.27-5.25c1.77-4.25,3.5-8.51,5.22-12.78
				c1.72-4.27,3.44-8.54,5.12-12.82c0.36-0.92,1.31-4.99,2.01-5.35c-39.87,20.8-83.16,34.73-127.7,41
				c-41.94,5.9-86.7,6.42-127.83-4.81c-21.75-5.94-42.36-15.72-59.49-30.53c0.56,0.48-6.88,16.5-7.49,18.03
				c-1.72,4.27-3.44,8.54-5.12,12.82C195.92,357.62,193.86,362.11,194.15,362.37L194.15,362.37z"/>
		</g>
	</g>
	<g class="st1">
		<g>
			<path d="M398.67,224.66c7.98,5.73,15.96,11.46,23.95,17.19c-0.37-0.27,6.92-16.6,7.49-18.03c0.61-1.51,8.02-17.53,7.13-18.17
				c-7.98-5.73-15.96-11.46-23.95-17.19c0.37,0.27-6.92,16.6-7.49,18.03C405.2,207.99,397.78,224.02,398.67,224.66L398.67,224.66z"
				/>
		</g>
	</g>
	<g class="st1">
		<g>
			<path d="M177.29,224.66c7.98,5.73,15.96,11.46,23.95,17.19c-0.37-0.27,6.92-16.6,7.49-18.03c0.61-1.51,8.02-17.53,7.13-18.17
				c-7.98-5.73-15.96-11.46-23.95-17.19c0.37,0.27-6.92,16.6-7.49,18.03C183.81,207.99,176.4,224.02,177.29,224.66L177.29,224.66z"
				/>
		</g>
	</g>
	<g class="st1">
		<g>
			<path d="M207.6,224.66c7.98,5.73,15.96,11.46,23.95,17.19c-0.37-0.27,6.92-16.6,7.49-18.03c0.61-1.51,8.02-17.53,7.13-18.17
				c-7.98-5.73-15.96-11.46-23.95-17.19c0.37,0.27-6.92,16.6-7.49,18.03C214.12,207.99,206.71,224.02,207.6,224.66L207.6,224.66z"/>
		</g>
	</g>
	<g class="st1">
		<path d="M514.05,348.46c2.19,20.4,18.79,34.16,35.87,42.83c38,18.99,83.22,17.56,115.03-12.02c11.9-10.56,20.59-22.4,30.38-35.75
			c-0.15,17.22-5.07,34.22-14.07,48.97c-30.58,50.91-101.46,56.04-145.38,19.52C518.11,397.58,502.12,370.91,514.05,348.46
			L514.05,348.46z"/>
	</g>
	<g class="st1">
		<g>
			<path d="M211.65,328.83c-11.01-9.59-15.04-23.57-18.89-37.14c-1.57-5.55-6.16-10.76-10.33-3.79
				c-4.36,7.28-7.38,15.68-10.61,23.49c-5.31,12.83-10.66,25.7-15.39,38.76c-0.74,2.04-1.44,4.1-2.14,6.16
				c-0.28,0.83-0.58,1.66-0.85,2.49c1.91-4.81,3.82-9.63,5.72-14.44c6.75-14.19,8.52-18.79,5.31-13.81
				c-2.35,3.01-4.83,5.71-8.82,6.33c-15.63,2.43-20.09-20.17-21.05-31.22c-0.68-7.88-0.11-15.87,1.63-23.58
				c0.53-2.35,1.2-4.65,1.92-6.95c0.09-0.25,0.17-0.5,0.26-0.75c1.97-5.63,0.12-1.08-5.55,13.64c-6.41,15.02-7.99,19.07-4.74,12.16
				c0.24-0.47,0.49-0.93,0.73-1.4c1.99-3.73,4.33-7.23,6.9-10.58c0.95-1.24,1.74-3.98,2.25-5.21c1.76-4.21,3.48-8.44,5.18-12.68
				c1.71-4.23,3.41-8.47,5.08-12.72c0.59-1.51,1.04-4.06,2-5.31c-5.08,6.62-8.69,13.82-11.89,21.49
				c-5.42,12.99-11.53,26.08-15.46,39.64c-4.28,14.76-4.45,31.52,1.06,46c2.62,6.88,8.23,14.18,16.46,13.45
				c9.87-0.87,13.13-13.7,16.16-21.11c5.14-12.58,10.02-25.18,14.58-37.97c-13.81,38.79-11.9,28.53-8.32,20.69
				c0.52-1.14,1.03-2.29,1.55-3.43c1.03-2.23,2-4.58,3.24-6.7c1.41-2.41,3.61-5.32,6.75-3.63c3.17,1.71,3.82,6.8,4.68,9.87
				c1.19,4.26,2.46,8.51,4.03,12.65c3.1,8.17,7.39,15.7,14.03,21.5c-0.56-0.49,6.82-16.37,7.44-17.89
				c1.71-4.23,3.41-8.47,5.08-12.72C209.89,333.54,211.94,329.09,211.65,328.83L211.65,328.83z"/>
		</g>
	</g>
</g>
<g id="Layer_4" class="st0">
	<rect x="309.21" y="132.77" class="st5" width="252.62" height="351.51"/>
	<g class="st1">
		<g>
			<path d="M331.23,189.26c33.22,9.79,67.62,18.46,102.19,21.57c19.05,1.71,38.35,1.69,57.43,0.57c9.24-0.54,18.46-1.49,27.56-3.19
				c4.54-0.85,9.04-1.89,13.47-3.16c2.96-0.85,3.81-1.73,4.56,1.73c0.44,2.03,0.19,3.93-0.31,5.91c1.93-4.9,3.87-9.79,5.8-14.69
				c-0.19,0.46-0.37,0.92-0.56,1.38c1.18-2.82,2.36-5.63,3.54-8.45c-0.25,0.43-0.5,0.86-0.75,1.29c-4.15,7.13-5.22,16.05-9.35,23.14
				c1.91-3.28,3.15-6.93,4.57-10.43c2-4.92,4.37-9.87,5.95-14.95c0.61-1.98,1.53-6.67-0.27-8.45c-1.31-1.29-9.61,1.92-11.9,2.43
				c-15.69,3.52-31.81,4.52-47.84,4.89c-33.07,0.76-65.19-3.16-97.43-10.36c-15.91-3.55-31.7-7.74-47.34-12.35
				C339.63,165.84,331.82,189.43,331.23,189.26L331.23,189.26z"/>
		</g>
	</g>
	<g class="st1">
		<g>
			<path d="M539.72,203.68c-17.48,0.25-34.96,0.5-52.44,0.76c-8.96,0.13-17.95,0.05-26.8,1.62c-8.46,1.5-16.66,4.16-24.77,6.92
				c-14.74,5.01-29.92,10.43-41.77,20.89c-5.03,4.44-9.33,9.68-12.35,15.69c-5.87,11.69-10.54,24.45-14.97,36.75
				c-0.77,2.13,1.22-2.6,0.78-1.57c1.37-3.17,2.66-6.39,3.96-9.59c2.68-6.59,5.48-13.15,7.89-19.84
				c-11.94,27.1-15.15,35.28-9.66,24.52c0.26-0.45,0.52-0.89,0.78-1.34c0.8-1.33,1.67-2.62,2.6-3.86c1.87-2.5,3.96-4.83,6.22-6.99
				c4.76-4.54,10.24-8.25,16.04-11.34c12.53-6.7,26.58-11.29,40.2-15.19c14.77-4.23,29.43-4.34,44.67-4.56
				c15.54-0.22,31.08-0.45,46.61-0.67c1.27-0.02,6.04-14.47,6.66-16.03c1.53-3.79,3.06-7.59,4.55-11.4
				C538.13,207.93,539.52,203.69,539.72,203.68L539.72,203.68z"/>
		</g>
	</g>
	<g class="st1">
		<g>
			<path d="M332.66,189.59c11.52,5.11,24.3,8.4,34.19,16.57c9.16,7.56,14.65,17.61,17.67,28.86c-0.24-0.9,0.09-3.27,0.1-3.97
				c0.03-3.2,0.04-6.39,0.04-9.59c0-4.17,0.95-9.5-0.14-13.56c-3.02-11.25-8.51-21.3-17.67-28.86c-9.9-8.17-22.67-11.46-34.19-16.57
				c0.65,0.29-0.14,12.32-0.14,13.56C332.53,177.41,331.52,189.08,332.66,189.59L332.66,189.59z"/>
		</g>
	</g>
	<g class="st1">
		<g>
			<path d="M547.89,273.34c2.88-16.73-21.83-21.82-33.87-20.88c-16.85,1.31-33.1,11.43-47.43,19.64
				c-29.89,17.12-58.87,37.75-93.01,45.51c-4.58,1.04-9.22,1.85-13.89,2.33c-3.35,0.34-7.46,0.71-10.33-1.45
				c-3.32-2.51-3.29-7.36-3.29-11.14c0-2.29,0.18-4.58,0.52-6.84c0.13-0.85,0.28-1.7,0.45-2.54c0.17-0.84,0.38-1.68,0.61-2.5
				c2.41-8.75-0.64-1.42-9.13,22c2.67-6.01,5.05-12.16,7.5-18.27c1.19-2.97,2.41-5.93,3.53-8.92c0.1-0.27,1.12-2.96,0.49-1.55
				c-3.16,7.12-6.02,14.38-8.91,21.62c-2.06,5.16-4.37,10.31-5.73,15.72c-1.52,6.06-3.97,19.24,2.99,22.83
				c3.06,1.57,6.87,1.09,10.14,0.72c4.66-0.52,9.3-1.36,13.87-2.43c9.17-2.16,18.09-5.29,26.73-9.01
				c17.25-7.43,33.33-17.21,49.41-26.86c16.32-9.79,33.16-20.69,51.38-26.57c10.01-3.23,19.82-3.23,29.88-0.22
				c8.49,2.54,17.81,8.39,16.05,18.58c0.21-1.2,1.48-3.38,1.87-4.32c1.45-3.49,2.88-7,4.3-10.51
				C543.92,283.58,547.02,278.38,547.89,273.34L547.89,273.34z"/>
		</g>
	</g>
	<g class="st1">
		<g>
			<path d="M545.85,348.6c-1.47-8.31-10.63-11.86-18-13.3c-10.15-1.99-16.94,1.52-23.75,8.72c-5.64,5.96-14,11.75-21.18,4.4
				c-6.07-6.21-7-19.64-4.01-27.47c-3.68,9.06-7.35,18.12-11.03,27.19c9.07-20.46,35.32-23.18,51.96-10.43
				c7.11,5.45,12,13.38,14.28,22c1.16,4.39,1.66,8.95,1.45,13.5c-0.11,2.26-0.39,4.51-0.85,6.73c-0.23,1.11-0.59,2.18-0.83,3.29
				c3.29-8.06,6.58-16.12,9.86-24.18c-0.5,1.06-1.04,2.09-1.65,3.1c-2.6,4.53-4.21,9.98-6.16,14.82c-1.94,4.8-3.29,10.46-5.86,14.94
				c2.54-4.43,4.35-9.23,6.28-13.95c3.1-7.58,6.48-15.16,9.06-22.94c2.47-7.44,2.87-15.43,1.21-23.09
				c-3.66-16.9-17.44-30.4-34.99-31.87c-8.52-0.72-17.02,1.86-23.55,7.41c-9.66,8.2-13.15,22.54-17.61,33.76
				c-3.69,9.31-6.27,17.73-4.05,27.85c2.03,9.28,10.12,16.2,19.27,10.38c4.2-2.67,7-6.84,10.71-10.07
				c4.15-3.62,9.07-5.18,14.54-4.94c8.58,0.37,21.15,4.15,22.87,13.91c-0.09-0.53,1.9-4.39,1.87-4.32c1.45-3.49,2.88-7,4.3-10.51
				c1.42-3.51,2.83-7.02,4.21-10.54C544.59,351.98,546.03,349.63,545.85,348.6L545.85,348.6z"/>
		</g>
	</g>
	<g class="st1">
		<g>
			<path d="M323.13,411.28c2.82,6.02,9.31,10.65,14.7,14.3c5.79,3.92,12.11,7.06,18.68,9.46c15.19,5.57,31.55,7.14,47.63,6.9
				c31.53-0.47,62.93-7.95,91.3-21.7c14.07-6.81,28.41-15.14,36.02-29.36c5.03-9.4,7.02-20.41,12.03-29.76
				c-6.6,12.33-18.28,20.21-30.39,26.53c-13.84,7.23-28.49,12.91-43.56,16.99c-30.31,8.2-65.18,11.62-95.65,2.42
				c-7.47-2.25-14.7-5.38-21.34-9.5c-6.29-3.9-14.18-9.17-17.4-16.05c0.11,0.23-2.05,4.77-1.87,4.32c-1.45,3.49-2.88,7-4.3,10.51
				c-1.42,3.51-2.83,7.02-4.21,10.54C324.49,407.63,322.83,410.64,323.13,411.28L323.13,411.28z"/>
		</g>
	</g>
	<g class="st1">
		<g>
			<path d="M422.67,380.24c7.1,6.66,13.74,13.75,19.9,21.28c-0.06-0.08,2.12-4.93,1.87-4.32c1.45-3.49,2.88-7,4.3-10.51
				c1.42-3.51,2.83-7.02,4.21-10.54c0.23-0.58,1.95-4.05,1.66-4.4c-6.17-7.53-12.8-14.62-19.9-21.28
				c0.52,0.49-5.64,13.52-6.16,14.82c-1.42,3.51-2.83,7.02-4.21,10.54C424.13,376.36,422.42,380.01,422.67,380.24L422.67,380.24z"/>
		</g>
	</g>
</g>
<g id="Layer_3">
	<g>
		<g>
			<path d="M304.01,168.9c29.09,8.58,58.56,15.67,88.45,20.84c33.52,5.8,67.98,6.74,101.86,3.95c9.37-0.77,18.72-1.98,27.92-3.92
				c4.48-0.95,9.13-2.93,13.64-3.48c1.47-0.18,1.13-0.82,2.11,0.13c0.66,0.64,0.95,2.88,1.04,3.64c0.26,2.07-0.09,4.02-0.67,6
				c3.49-8.67,6.98-17.35,10.47-26.02c-0.38,0.75-0.77,1.5-1.15,2.24c-2.36,3.98-3.75,8.91-5.48,13.19
				c-1.71,4.24-2.89,9.36-5.22,13.29c2.28-3.85,3.75-8.23,5.43-12.37c2.39-5.86,5.71-12.05,7.07-18.27c0.38-1.75,0.43-3.53,0.1-5.29
				c-0.12-0.65-0.24-1.63-0.59-2.2c-1.09-1.77,0.28-1.16-2.43-0.83c-4.5,0.56-9.17,2.53-13.64,3.48
				c-18.17,3.83-36.8,4.83-55.32,5.18c-37.18,0.69-73.38-3.96-109.62-12.11c-17.91-4.03-35.69-8.75-53.3-13.94
				C313.62,142.1,304.68,169.1,304.01,168.9L304.01,168.9z"/>
		</g>
	</g>
	<g>
		<g>
			<path d="M542.6,185.4c-20.26,0.29-40.53,0.58-60.79,0.88c-9.66,0.14-19.36,0.06-28.92,1.68c-9.46,1.6-18.64,4.48-27.71,7.54
				c-16.73,5.64-34.02,11.6-47.78,23.05c-6.06,5.04-11.36,11.08-15.09,18.05c-3.02,5.66-5.24,11.78-7.66,17.7
				c-3.46,8.51-7.04,17.01-10.14,25.66c-0.87,2.44,1.39-2.97,0.89-1.8c1.55-3.64,3.04-7.31,4.53-10.97
				c3.06-7.53,6.29-15.05,9.03-22.71c-13.67,31.55-17.52,41.2-11.54,28.96c0.49-0.92,1.01-1.83,1.56-2.72
				c0.82-1.34,1.7-2.64,2.64-3.91c2.19-2.97,4.66-5.73,7.34-8.26c5.19-4.92,11.1-9,17.36-12.43c14.4-7.88,30.64-13.17,46.37-17.73
				c16.91-4.9,33.64-5.13,51.1-5.38c17.98-0.26,35.95-0.52,53.93-0.78c0.3,0,2.59-6.03,2.31-5.34c1.8-4.32,3.56-8.66,5.32-13
				c1.75-4.34,3.5-8.69,5.21-13.05C540.78,190.26,542.37,185.41,542.6,185.4L542.6,185.4z"/>
		</g>
	</g>
	<g>
		<g>
			<path d="M305.65,169.28c13.09,5.82,27.54,9.56,38.86,18.74c10.61,8.62,17.02,20.3,20.49,33.25c-0.28-1.03,0.1-3.74,0.11-4.55
				c0.04-3.66,0.05-7.32,0.05-10.97c0-4.77,1.09-10.87-0.16-15.52c-3.47-12.95-9.87-24.63-20.49-33.25
				c-11.31-9.19-25.77-12.92-38.86-18.74c0.75,0.33-0.16,14.1-0.16,15.52c0,3.66,0.01,7.32,0.05,10.97
				C305.54,165.29,305.3,169.12,305.65,169.28L305.65,169.28z"/>
		</g>
	</g>
	<g>
		<path d="M327.51,336.58c11.52,34.75,48.77,55.2,81.59,64.13c37.9,10.03,75.24,3,104.77-23.43c8.08-6.96,15.53-15.18,22.4-23.54
			c6.35-7.8,11.93-15.7,18.11-23.97c-0.05,13.95-2.69,27.9-7.48,41.01c-29.01,80.27-125.59,95.76-187.77,43
			C337.81,395.62,318.65,365.3,327.51,336.58L327.51,336.58z"/>
	</g>
	<g>
		<path d="M390.56,234.41c-18,12.66-34.01,28.63-45.17,47.7c-12.64,21.04-17.87,44.83-19.24,69.24c-0.18,1.52-0.26,3.13-0.93,4.54
			c0.75-2.98,0.13-6.12,0.09-9.17c-0.17-3.08-0.31-6.17-0.38-9.27c-0.12-6.2,0.05-12.45,0.65-18.69
			c2.3-25.25,12.04-50.08,26.85-70.72c7.5-10.5,16.18-20.19,25.66-28.98L390.56,234.41L390.56,234.41z"/>
	</g>
	<g>
		<g>
			<path d="M303.77,275.88c-1.73,16.52-1.48,33.5-0.85,50.06c0.37,9.52,2.72,18.79,10.96,24.53c18.66,13.02,46.22,5.94,65.03-2.78
				c21.73-10.08,41.01-24.74,62.38-35.56c10.66-5.4,21.61-10.24,32.78-14.48c11.32-4.29,23.14-8.01,35.33-8.49
				c23.31-0.92,46.67,12.6,47.29,37.92c-0.03-10.23-0.05-20.47-0.08-30.7c0.04-3.99-0.33,1.96-0.48,2.99
				c-0.24,1.69-0.55,3.37-0.91,5.04c-0.72,3.36-1.67,6.68-2.73,9.95c-1.98,6.11-4.33,12.12-6.63,18.12
				c-4.42,11.53-9.29,23.34-17.4,32.82c-0.43,0.5-0.13,5.48-0.13,5.38c-0.05,4.33-0.06,8.66-0.05,12.99c0,4.33,0.01,8.66,0.05,12.99
				c0.01,0.93,0.61,4.81,0.13,5.38c8.11-9.48,12.98-21.29,17.4-32.82c4.56-11.89,9.59-23.99,10.69-36.79
				c1.03-11.91,0.45-24.11,0.32-36.04c-0.08-7.38-0.34-14.62-3.55-21.43c-4.98-10.59-15.39-17.58-26.43-20.65
				c-13.63-3.79-28.01-1.49-41.28,2.6c-14.1,4.34-27.81,10.33-41.03,16.84c-13.24,6.53-25.82,14.12-38.36,21.88
				c-12.42,7.69-25.07,15.29-38.96,20.04c-14.6,4.99-31.57,7.29-46.34,1.68c-6.38-2.43-11.91-6.57-14.9-12.84
				c-1.51-3.15-2.32-6.59-2.72-10.05c-1.83-15.86-1.1,39.39-0.14,25.22c0.16-2.37,0.38-4.72,0.62-7.08
				c0.63-6.02,0.19-12.33,0.18-18.37C303.95,288.25,303.14,281.84,303.77,275.88L303.77,275.88z"/>
		</g>
	</g>
</g>
</svg>
